<svg width="512" height="512" viewBox="0 0 512 512" fill="none" xmlns="http://www.w3.org/2000/svg">
<rect width="512" height="512" rx="96" fill="#111827"/>
<path d="M143.438 191.5C143.438 163.922 154.484 138.328 173.688 119.125C192.891 99.9219 218.484 88.875 246 88.875H266C293.516 88.875 319.109 99.9219 338.312 119.125C357.516 138.328 368.562 163.922 368.562 191.5V232.375H410.312C415.938 232.375 420.562 237 420.562 242.625V270.25C420.562 275.875 415.938 280.5 410.312 280.5H368.562V337.375C368.562 384.938 330.312 423.125 282.75 423.125H229.25C181.688 423.125 143.438 384.938 143.438 337.375V280.5H101.688C96.0625 280.5 91.4375 275.875 91.4375 270.25V242.625C91.4375 237 96.0625 232.375 101.688 232.375H143.438V191.5Z" fill="#34D399"/>
</svg>
